<?xml version="1.0" encoding="UTF-8" standalone="no"?>
<!-- Created with Inkscape (http://www.inkscape.org/) -->

<svg
   width="149.78137mm"
   height="126.08631mm"
   viewBox="0 0 149.78137 126.08631"
   version="1.1"
   id="svg5"
   inkscape:version="1.1.2 (0a00cf5339, 2022-02-04)"
   sodipodi:docname="bell.svg"
   xmlns:inkscape="http://www.inkscape.org/namespaces/inkscape"
   xmlns:sodipodi="http://sodipodi.sourceforge.net/DTD/sodipodi-0.dtd"
   xmlns:xlink="http://www.w3.org/1999/xlink"
   xmlns="http://www.w3.org/2000/svg"
   xmlns:svg="http://www.w3.org/2000/svg">
  <sodipodi:namedview
     id="namedview7"
     pagecolor="#ffffff"
     bordercolor="#666666"
     borderopacity="1.0"
     inkscape:pageshadow="2"
     inkscape:pageopacity="0.0"
     inkscape:pagecheckerboard="0"
     inkscape:document-units="mm"
     showgrid="false"
     fit-margin-top="0"
     fit-margin-left="0"
     fit-margin-right="0"
     fit-margin-bottom="0"
     inkscape:zoom="1.0620589"
     inkscape:cx="88.978116"
     inkscape:cy="271.64218"
     inkscape:window-width="1553"
     inkscape:window-height="761"
     inkscape:window-x="418"
     inkscape:window-y="52"
     inkscape:window-maximized="0"
     inkscape:current-layer="layer1" />
  <defs
     id="defs2">
    <inkscape:path-effect
       effect="bspline"
       id="path-effect992"
       is_visible="true"
       lpeversion="1"
       weight="33.333333"
       steps="2"
       helper_size="0"
       apply_no_weight="true"
       apply_with_weight="true"
       only_selected="false" />
    <inkscape:path-effect
       effect="bspline"
       id="path-effect988"
       is_visible="true"
       lpeversion="1"
       weight="33.333333"
       steps="2"
       helper_size="0"
       apply_no_weight="true"
       apply_with_weight="true"
       only_selected="false" />
    <inkscape:path-effect
       effect="spiro"
       id="path-effect5902"
       is_visible="true"
       lpeversion="1" />
    <inkscape:path-effect
       effect="spiro"
       id="path-effect4668"
       is_visible="true"
       lpeversion="1" />
    <inkscape:path-effect
       effect="spiro"
       id="path-effect4448"
       is_visible="true"
       lpeversion="1" />
    <inkscape:path-effect
       effect="spiro"
       id="path-effect4251"
       is_visible="true"
       lpeversion="1" />
    <inkscape:path-effect
       effect="spiro"
       id="path-effect4157"
       is_visible="true"
       lpeversion="1" />
    <linearGradient
       id="linearGradient3948"
       inkscape:swatch="solid">
      <stop
         style="stop-color:#000000;stop-opacity:1;"
         offset="0"
         id="stop3946" />
    </linearGradient>
    <inkscape:path-effect
       effect="bspline"
       id="path-effect1136"
       is_visible="true"
       lpeversion="1"
       weight="33.333333"
       steps="2"
       helper_size="0"
       apply_no_weight="true"
       apply_with_weight="true"
       only_selected="false" />
    <inkscape:path-effect
       effect="bspline"
       id="path-effect939"
       is_visible="true"
       lpeversion="1"
       weight="33.333333"
       steps="2"
       helper_size="0"
       apply_no_weight="true"
       apply_with_weight="true"
       only_selected="false" />
    <inkscape:path-effect
       effect="bspline"
       id="path-effect803"
       is_visible="true"
       lpeversion="1"
       weight="33.333333"
       steps="2"
       helper_size="0"
       apply_no_weight="true"
       apply_with_weight="true"
       only_selected="false" />
    <inkscape:path-effect
       effect="mirror_symmetry"
       start_point="140.60094,114.5867"
       end_point="140.60094,165.50158"
       center_point="140.60094,140.04414"
       id="path-effect625"
       is_visible="true"
       lpeversion="1.1"
       mode="free"
       discard_orig_path="false"
       fuse_paths="false"
       oposite_fuse="false"
       split_items="false"
       split_open="false" />
    <inkscape:path-effect
       effect="bspline"
       id="path-effect201"
       is_visible="true"
       lpeversion="1"
       weight="33.333333"
       steps="2"
       helper_size="0"
       apply_no_weight="true"
       apply_with_weight="true"
       only_selected="false" />
    <inkscape:path-effect
       effect="bspline"
       id="path-effect201-3"
       is_visible="true"
       lpeversion="1"
       weight="33.333333"
       steps="2"
       helper_size="0"
       apply_no_weight="true"
       apply_with_weight="true"
       only_selected="false" />
    <clipPath
       clipPathUnits="userSpaceOnUse"
       id="clipPath579">
      <rect
         style="opacity:0.05;fill:#000000;fill-rule:evenodd;stroke-width:0.264583"
         id="rect581"
         width="50.387157"
         height="50.914875"
         x="90.213783"
         y="114.5867"
         d="m 90.213783,114.5867 h 50.387157 v 50.91488 H 90.213783 Z" />
    </clipPath>
    <clipPath
       clipPathUnits="userSpaceOnUse"
       id="clipPath579-7">
      <rect
         style="opacity:0.05;fill:#000000;fill-rule:evenodd;stroke-width:0.264583"
         id="rect581-5"
         width="50.387157"
         height="50.914875"
         x="90.213783"
         y="114.5867" />
    </clipPath>
    <inkscape:path-effect
       effect="bspline"
       id="path-effect201-35"
       is_visible="true"
       lpeversion="1"
       weight="33.333333"
       steps="2"
       helper_size="0"
       apply_no_weight="true"
       apply_with_weight="true"
       only_selected="false" />
    <clipPath
       clipPathUnits="userSpaceOnUse"
       id="clipPath579-2">
      <rect
         style="opacity:0.05;fill:#000000;fill-rule:evenodd;stroke-width:0.264583"
         id="rect581-9"
         width="50.387157"
         height="50.914875"
         x="90.213783"
         y="114.5867"
         d="m 90.213783,114.5867 h 50.387157 v 50.91488 H 90.213783 Z" />
    </clipPath>
    <inkscape:path-effect
       effect="bspline"
       id="path-effect201-1"
       is_visible="true"
       lpeversion="1"
       weight="33.333333"
       steps="2"
       helper_size="0"
       apply_no_weight="true"
       apply_with_weight="true"
       only_selected="false" />
    <clipPath
       clipPathUnits="userSpaceOnUse"
       id="clipPath1390">
      <use
         x="0"
         y="0"
         xlink:href="#g1386"
         id="use1392"
         width="100%"
         height="100%" />
    </clipPath>
    <clipPath
       clipPathUnits="userSpaceOnUse"
       id="clipPath1394">
      <rect
         style="opacity:0.05;fill:#000000;stroke:#000000;stroke-width:0.255906"
         id="rect1396"
         width="149.78137"
         height="126.52855"
         x="48.912876"
         y="72.871681" />
    </clipPath>
  </defs>
  <g
     inkscape:label="Layer 1"
     inkscape:groupmode="layer"
     id="layer1"
     transform="translate(-48.912876,-73.31392)">
    <g
       id="g1388"
       clip-path="url(#clipPath1394)">
      <g
         inkscape:label="Clip"
         id="g1386">
        <path
           style="fill:none;stroke:#000000;stroke-width:0.278435px;stroke-linecap:butt;stroke-linejoin:miter;stroke-opacity:1"
           d="m 62.303692,131.9961 c 10.687405,-8.52064 21.37478,-17.04126 28.104674,-16.70639 6.729893,0.33487 9.502125,9.52451 12.164904,18.77355 2.66277,9.24904 5.21594,18.55691 11.53586,23.80642 6.31991,5.24951 16.40593,6.44071 26.49181,7.63189"
           id="path199"
           inkscape:path-effect="#path-effect201"
           inkscape:original-d="m 62.303692,131.9961 c 10.687648,-8.52034 21.375023,-17.04096 32.062123,-25.56186 2.77262,9.19029 5.544856,18.37993 8.316865,27.56948 2.55354,9.30853 5.10671,18.6164 7.65967,27.9242 10.08666,1.19152 20.17268,2.38271 30.25859,3.57365"
           clip-path="url(#clipPath579)"
           transform="matrix(1.7049878,0,0,1.9571238,-30.096832,-141.63189)" />
        <path
           style="fill:none;stroke:#000000;stroke-width:0.278435px;stroke-linecap:butt;stroke-linejoin:miter;stroke-opacity:1"
           d="m 62.303692,131.9961 c 10.687405,-8.52064 21.37478,-17.04126 28.104674,-16.70639 6.729893,0.33487 9.502125,9.52451 12.164904,18.77355 2.66277,9.24904 5.21594,18.55691 11.53586,23.80642 6.31991,5.24951 16.40593,6.44071 26.49181,7.63189"
           id="path199-2"
           inkscape:path-effect="#path-effect201-1"
           inkscape:original-d="m 62.303692,131.9961 c 10.687648,-8.52034 21.375023,-17.04096 32.062123,-25.56186 2.77262,9.19029 5.544856,18.37993 8.316865,27.56948 2.55354,9.30853 5.10671,18.6164 7.65967,27.9242 10.08666,1.19152 20.17268,2.38271 30.25859,3.57365"
           clip-path="url(#clipPath579-2)"
           transform="matrix(-1.7049878,0,0,1.9571238,277.52998,-141.63189)" />
        <path
           style="fill:none;stroke:#000000;stroke-width:0.483317px;stroke-linecap:butt;stroke-linejoin:miter;stroke-opacity:1"
           d="m 44.033038,181.65053 c 27.688318,-5.26642 55.376294,-10.53278 82.975502,-10.42853 27.59921,0.10425 55.10836,5.57872 82.61752,11.05319"
           id="path801"
           inkscape:path-effect="#path-effect803"
           inkscape:original-d="m 44.033038,181.65053 c 27.688431,-5.26583 55.376404,-10.5322 83.063932,-15.79907 27.5107,5.47521 55.01985,10.94968 82.52909,16.42373" />
        <path
           style="fill:none;stroke:#000000;stroke-width:0.398681px;stroke-linecap:butt;stroke-linejoin:miter;stroke-opacity:1"
           d="m 37.783769,182.21955 c 29.965144,8.58905 59.929777,17.17795 88.574211,17.17775 28.64444,-2e-4 55.96781,-8.58893 83.29141,-17.17773"
           id="path1134"
           inkscape:path-effect="#path-effect1136"
           inkscape:original-d="m 37.783769,182.21955 c 29.965087,8.58925 59.929718,17.17816 89.893901,25.76671 27.32489,-8.58872 54.64826,-17.17744 81.97172,-25.76669" />
        <path
           style="opacity:0.05;fill:#000000;stroke-width:0.264583"
           id="path1240"
           sodipodi:type="arc"
           sodipodi:cx="120.98145"
           sodipodi:cy="74.10202"
           sodipodi:rx="2.7351153"
           sodipodi:ry="8.5264435"
           sodipodi:start="0"
           sodipodi:end="0.026603215"
           sodipodi:arc-type="slice"
           d="m 123.71657,74.10202 a 2.7351153,8.5264435 0 0 1 -9.7e-4,0.226804 l -2.73415,-0.226804 z" />
        <ellipse
           style="opacity:1;fill:#000000;fill-opacity:0;stroke:#000000;stroke-width:0.194869;stroke-opacity:1"
           id="path1429"
           cx="123.2811"
           cy="78.736153"
           rx="5.0073276"
           ry="5.3247986" />
        <path
           style="fill:none;stroke:#000000;stroke-width:0.239984px;stroke-linecap:butt;stroke-linejoin:miter;stroke-opacity:1"
           d="m 64.985251,177.85249 c 19.397906,2.80171 39.020149,4.04873 58.616669,3.72515 18.41137,-0.30401 36.7997,-1.99403 54.95805,-5.05105"
           id="path5900"
           inkscape:path-effect="#path-effect5902"
           inkscape:original-d="m 64.985251,177.85249 c 19.53911,1.24198 39.077999,2.4837 58.616669,3.72515 19.53868,1.24145 36.63892,-3.3671 54.95805,-5.05105" />
        <path
           style="opacity:1;fill:#000000;fill-opacity:1;stroke:#000000;stroke-width:0.112981;stroke-opacity:1"
           d="m 123.56512,171.60927 c -10.09883,0.0228 -20.18434,0.91016 -30.230455,2.10964 -8.977882,1.11919 -17.937244,2.48556 -26.860047,4.12695 3.989142,0.63952 8.104203,1.05409 12.147979,1.52568 13.318854,1.37845 26.686583,2.16062 40.055893,2.02022 16.4871,0.0199 32.97315,-1.17539 49.35325,-3.44076 3.03968,-0.45944 6.09707,-0.82198 9.11789,-1.42276 -0.1984,-0.21115 -0.7578,-0.14055 -1.07044,-0.24691 -13.43915,-2.2693 -26.95953,-3.93123 -40.52173,-4.54604 -3.99673,-0.10555 -7.99475,-0.13195 -11.99234,-0.12602 z"
           id="path13602" />
        <ellipse
           style="fill:#ffffff;fill-opacity:1;stroke:#000000;stroke-width:0.372093;stroke-opacity:1"
           id="path1429-7"
           cx="122.77536"
           cy="181.06421"
           rx="10.106898"
           ry="9.6185656" />
        <path
           style="opacity:1;fill:#ffffff;fill-opacity:1;stroke:#000000;stroke-width:0.225961;stroke-opacity:1"
           d="m 123.44008,84.455107 c -5.37066,0.03479 -9.5853,5.084432 -12.14659,10.375262 -4.53946,9.354131 -6.67579,20.025841 -9.43034,30.264081 -3.377262,12.91039 -6.665035,26.41997 -13.960751,36.98517 -4.976932,7.24614 -12.173463,11.47737 -19.429247,14.33302 -1.467896,0.60016 -0.07894,0.42115 0.606951,0.24785 19.327577,-3.28758 38.791727,-5.93967 58.336937,-5.69644 16.54283,-0.0463 33.01654,2.09615 49.39878,4.70317 0.0282,-0.21566 -1.68364,-0.84465 -2.24043,-1.16053 -7.12217,-3.17878 -13.50593,-8.91265 -17.6836,-16.66588 -6.3643,-11.39893 -9.20222,-24.93401 -12.64439,-37.88188 -2.44588,-9.16094 -4.55405,-18.69926 -8.99663,-26.79702 -2.7103,-4.740543 -6.75611,-9.039485 -11.81069,-8.706803 z"
           id="path17992" />
        <path
           style="opacity:1;fill:#ffffff;fill-opacity:1;stroke:#000000;stroke-width:0.225961;stroke-opacity:1"
           d="m 178.48586,176.89678 c -6.0506,0.72177 -12.08065,1.7753 -18.14434,2.39211 -9.03726,0.96348 -18.08532,2.07487 -27.16459,2.13443 -0.51127,5.99675 -5.73581,9.73843 -10.37732,9.45208 -4.43656,0.26243 -9.2132,-2.96569 -10.3301,-8.43758 -0.57761,-1.28621 -2.10264,-0.46592 -3.06268,-0.74931 -14.13244,-0.0409 -28.217905,-1.64206 -42.275878,-3.23763 -4.37487,-0.35189 -8.690366,1.01508 -13.012413,1.63862 -4.65374,0.90896 -9.34812,1.63322 -14.016512,2.29577 7.385123,2.47883 14.960956,4.33933 22.450754,6.41006 24.174118,6.35619 48.873579,11.70045 73.707699,9.92836 22.20075,-1.44956 43.93337,-7.6558 65.39714,-14.34466 1.87559,-0.67863 3.92035,-1.00093 5.69295,-1.92467 -2.6886,-0.76951 -5.57624,-0.76143 -8.32881,-1.3321 -6.25379,-0.91155 -12.42157,-2.47161 -18.57643,-4.05324 -0.64827,-0.1177 -1.30364,-0.18575 -1.95947,-0.17224 z"
           id="path18031" />
        <path
           style="opacity:1;fill:#ffffff;fill-opacity:1;stroke:#000000;stroke-width:0.225961;stroke-opacity:1"
           d="m 123.09302,73.628473 c -2.90533,-0.132599 -5.75834,3.872483 -4.20112,7.235759 1.29487,2.932327 4.51441,3.471174 6.8547,2.268382 1.98946,-1.224896 2.97783,-4.37564 1.7517,-6.766707 -0.88407,-1.838571 -2.69423,-2.805275 -4.40528,-2.737434 z"
           id="path18070" />
        <path
           style="fill:none;stroke:#000000;stroke-width:0.264583px;stroke-linecap:butt;stroke-linejoin:miter;stroke-opacity:1"
           d="m 53.9039,179.91458 c -2.293975,0.8644 -4.588089,1.72885 -4.788854,2.85934 -0.200765,1.13049 1.691596,2.5267 3.583693,3.92272"
           id="path986"
           inkscape:path-effect="#path-effect988"
           inkscape:original-d="m 53.9039,179.91458 c -2.293853,0.86472 -4.587967,1.72917 -6.882349,2.59335 1.892696,1.39653 3.785057,2.79274 5.677188,4.18871" />
        <path
           style="fill:none;stroke:#000000;stroke-width:0.264583px;stroke-linecap:butt;stroke-linejoin:miter;stroke-opacity:1"
           d="m 196.22089,179.83433 c 1.29924,1.07147 2.59819,2.14271 2.34868,3.29543 -0.24952,1.15271 -2.0472,2.38713 -3.84498,3.62162"
           id="path990"
           inkscape:path-effect="#path-effect992"
           inkscape:original-d="m 196.22089,179.83433 c 1.29922,1.0715 2.59817,2.14274 3.89686,3.21371 -1.79749,1.23473 -3.59517,2.46916 -5.39316,3.70334" />
      </g>
    </g>
    <path
       style="opacity:0.05;fill:#ffffff;stroke:#000000;stroke-width:0.941567"
       d="m 462.41256,43.32865 c -16.63821,0.877381 -29.46,14.45752 -37.68998,27.887236 -20.87983,35.835694 -28.61976,77.184894 -39.5167,116.716914 -13.97663,51.38136 -25.15782,105.47226 -56.39395,149.76528 -15.96449,23.11282 -40.29013,38.38612 -65.34409,50.01619 -6.56664,2.96901 2.85489,0.64885 4.94976,0.47327 49.98961,-8.10842 100.24566,-15.41893 150.84224,-18.26371 50.52249,-1.67703 101.25563,-2.44426 151.55657,3.45979 29.08159,2.75118 58.14537,7.52883 86.97505,11.12712 -13.24624,-8.0232 -27.25298,-15.36311 -38.30659,-26.52865 C 593.80151,334.85164 579.59508,302.26805 568.13083,270.37452 550.2531,216.54795 539.66688,160.59151 521.7736,106.78146 513.23516,85.635059 504.15193,62.44861 484.62215,49.051614 478.03775,44.405463 470.41084,42.574112 462.41256,43.32865 Z"
       id="path938"
       transform="matrix(0.26458333,0,0,0.26458333,0.69366044,73.303932)" />
    <path
       style="opacity:0.05;fill:#ffffff;stroke:#000000;stroke-width:0.941567"
       d="m 458.06333,372.87355 c -16.02013,-0.26404 -30.86249,13.63363 -33.216,29.19227 -1.86433,11.90342 2.98225,24.07682 12.44818,31.50388 15.9088,14.30967 43.13153,10.29857 55.08721,-7.16841 9.51024,-13.47716 7.29293,-34.02576 -5.74319,-44.53688 -7.57986,-7.77076 -18.11211,-9.94053 -28.5762,-8.99086 z"
       id="path977"
       transform="matrix(0.26458333,0,0,0.26458333,0.69366044,73.303932)" />
    <path
       style="opacity:0.05;fill:#ffffff;stroke:#000000;stroke-width:0.941567"
       d="m 670.61665,393.03265 c -27.13015,2.20654 -53.95769,7.34795 -81.07837,9.83732 -29.19986,2.96907 -58.45802,6.46337 -87.8539,6.24105 -2.20069,16.80835 -15.39681,32.90512 -32.6312,35.19108 -11.09824,0.55816 -23.45449,1.02093 -32.08869,-7.33209 -7.84119,-6.07174 -12.79383,-15.23988 -15.46966,-24.47891 -8.8899,-3.85664 -19.29934,-1.54421 -28.7832,-2.4798 -48.12982,-0.87696 -95.89444,-7.32334 -143.76175,-11.68942 -18.17041,-0.29435 -36.16194,3.86181 -53.6997,8.2219 -4.56214,1.26347 -13.62477,4.59264 -10.01151,10.87216 6.12836,9.05998 18.5848,9.27057 28.02634,12.73506 78.4768,21.08771 158.24205,40.66605 239.78676,43.7492 39.41706,0.60071 78.95013,-0.80012 117.89867,-7.29624 54.15014,-8.55121 107.27822,-22.75598 159.57561,-38.99753 6.69066,-2.46632 15.17777,-6.70565 16.44582,-14.3926 -2.80363,-8.31784 -13.8546,-6.79641 -20.65526,-9.15364 -18.20866,-3.12066 -35.77735,-10.17277 -54.31888,-11.04225 l -0.94151,0.01 z"
       id="path1016"
       transform="matrix(0.26458333,0,0,0.26458333,0.69366044,73.303932)" />
    <path
       style="opacity:0.05;fill:#ffffff;stroke:#000000;stroke-width:0.941567"
       d="m 462.37578,2.3741474 c -14.84289,0.5077942 -22.11505,21.6793936 -10.94204,31.4064206 7.67673,7.50287 23.16694,5.553018 27.16937,-5.090348 6.19784,-11.077949 -3.10185,-27.5464535 -16.22733,-26.3160726 z"
       id="path1055"
       transform="matrix(0.26458333,0,0,0.26458333,0.69366044,73.303932)" />
  </g>
</svg>
